<svg width="130" height="131" viewBox="0 0 130 131" fill="none" xmlns="http://www.w3.org/2000/svg">
<path d="M64.9996 111.608C89.5429 111.608 109.439 103.803 109.439 94.1744C109.439 84.5463 89.5429 76.7412 64.9996 76.7412C40.4563 76.7412 20.5601 84.5463 20.5601 94.1744C20.5601 103.803 40.4563 111.608 64.9996 111.608Z" fill="#F9FAFB"/>
<path d="M47.1922 42.019L45.4396 53.0089H39.7437L41.4962 42.019H47.1922Z" fill="#F7F9FC"/>
<path d="M75.5167 53.3765C75.8959 53.3765 76.1559 53.6726 76.0969 54.0385C76.0391 54.4044 75.6852 54.7017 75.3048 54.7017H53.0423C52.6632 54.7017 52.402 54.4044 52.461 54.0385C52.5187 53.6726 52.8738 53.3765 53.253 53.3765H75.5167Z" fill="#667185"/>
<path d="M77.3667 45.527H90.3366L88.3915 57.7241L87.6211 62.5558H53.4889C52.2455 62.5558 51.2861 61.7517 51.1489 60.5925L51.0429 59.6862C50.9057 58.5282 49.9464 57.7229 48.7029 57.7229H38.9927L39.5331 54.3309H46.6025L48.7776 40.6929H41.7082L42.9673 32.7954H79.1711L79.3613 33.0121L77.3667 45.527ZM76.0138 50.2612C76.3929 50.2612 76.7468 49.965 76.8046 49.5991C76.8624 49.2332 76.6036 48.9359 76.2244 48.9359H53.9607C53.5816 48.9359 53.2265 49.2332 53.1675 49.5991C53.1097 49.965 53.3697 50.2612 53.7489 50.2612H76.0138ZM75.306 54.7004C75.6852 54.7004 76.0391 54.4031 76.098 54.0372C76.1558 53.6712 75.897 53.3751 75.5179 53.3751H53.253C52.8738 53.3751 52.5187 53.6712 52.4609 54.0372C52.4031 54.4031 52.6631 54.7004 53.0423 54.7004H75.306ZM74.5982 59.1373C74.9774 59.1373 75.3313 58.8412 75.3891 58.4752C75.4468 58.1093 75.188 57.812 74.8089 57.812H52.5452C52.166 57.812 51.8109 58.1093 51.7519 58.4752C51.6942 58.8412 51.9542 59.1373 52.3333 59.1373H74.5982Z" fill="#F7F9FC"/>
<path d="M74.8087 57.813C75.1878 57.813 75.4466 58.1103 75.3889 58.4762C75.3311 58.8422 74.9772 59.1383 74.598 59.1383H52.3343C51.9552 59.1383 51.694 58.8422 51.7529 58.4762C51.8107 58.1103 52.1658 57.813 52.5462 57.813H74.8087Z" fill="#667185"/>
<path d="M74.8087 57.813C75.1878 57.813 75.4466 58.1103 75.3889 58.4762C75.3311 58.8422 74.9772 59.1383 74.598 59.1383H52.3343C51.9552 59.1383 51.694 58.8422 51.7529 58.4762C51.8107 58.1103 52.1658 57.813 52.5462 57.813H74.8087Z" fill="#667185"/>
<path d="M99.2549 62.953C99.2537 62.9157 99.2501 62.8784 99.2465 62.8411C99.2441 62.8194 99.2429 62.7966 99.2405 62.7749C99.2356 62.734 99.2284 62.693 99.2212 62.6521C99.2188 62.6377 99.2176 62.6232 99.214 62.6088C99.214 62.6064 99.2128 62.604 99.2116 62.6004C99.2031 62.557 99.1923 62.5137 99.1815 62.4716C99.1791 62.4607 99.1767 62.4487 99.173 62.4379C99.1586 62.3849 99.1417 62.3319 99.1225 62.2802C99.1225 62.279 99.1213 62.2778 99.1213 62.2766C99.1201 62.2741 99.1189 62.2717 99.1177 62.2681C99.0888 62.1899 99.0563 62.1153 99.019 62.0418C99.0154 62.0358 99.0142 62.0286 99.0105 62.0226C99.0093 62.019 99.0069 62.0166 99.0045 62.0129C98.9708 61.9492 98.9347 61.8866 98.895 61.8264C98.8914 61.8204 98.8878 61.8143 98.8842 61.8083C98.8661 61.7818 98.848 61.7554 98.83 61.7301L96.5658 58.6426C96.5887 58.6739 96.6104 58.7064 96.6308 58.7389C96.6705 58.7991 96.7067 58.8617 96.7404 58.9254C96.7452 58.9351 96.75 58.9447 96.7548 58.9543C96.7909 59.0278 96.8246 59.1036 96.8535 59.1806C96.8547 59.1842 96.8571 59.1879 96.8583 59.1927C96.8764 59.2444 96.8932 59.2974 96.9089 59.3504C96.9125 59.3612 96.9137 59.3732 96.9173 59.3841C96.9281 59.4262 96.939 59.4695 96.9474 59.5129C96.951 59.5297 96.9534 59.5466 96.9558 59.5634C96.963 59.6043 96.9691 59.6441 96.9751 59.6862C96.9775 59.7079 96.9787 59.7307 96.9811 59.7524C96.9847 59.7897 96.9871 59.827 96.9895 59.8643C96.9907 59.8884 96.9907 59.9125 96.9907 59.9366C96.9907 59.9727 96.9907 60.01 96.9895 60.0461C96.9883 60.0702 96.9883 60.0954 96.9859 60.1207C96.9835 60.158 96.9799 60.1954 96.9763 60.2339C96.9739 60.2579 96.9715 60.282 96.9679 60.3073C96.9618 60.3482 96.9558 60.3879 96.9474 60.4289C96.9438 60.4505 96.9402 60.4722 96.9354 60.4939C96.9245 60.5468 96.9113 60.5998 96.8968 60.6528C96.8944 60.6624 96.892 60.672 96.8896 60.6829C96.8716 60.7454 96.8511 60.8092 96.8282 60.8718C96.821 60.8911 96.8126 60.9104 96.8054 60.9296C96.7885 60.9742 96.7705 61.0187 96.7512 61.062C96.7283 61.1126 96.7055 61.1631 96.6802 61.2149L80.4362 93.2623L80.3543 93.1516C80.3255 93.2178 80.2942 93.2816 80.2605 93.3454C80.2581 93.3502 80.2556 93.3538 80.2544 93.3586C80.2219 93.42 80.187 93.479 80.1509 93.5379C80.1016 93.6174 80.0498 93.6932 79.9944 93.7679C79.9788 93.7895 79.9619 93.8088 79.9463 93.8292C79.909 93.8762 79.8717 93.9231 79.8319 93.9689C79.8115 93.9929 79.7898 94.0158 79.7681 94.0387C79.732 94.0772 79.6947 94.1157 79.6562 94.153C79.6333 94.1747 79.6117 94.1976 79.5888 94.218C79.5479 94.2554 79.5057 94.2915 79.4636 94.3276C79.4419 94.3456 79.4215 94.3637 79.3998 94.3817C79.3348 94.4347 79.2674 94.4853 79.1976 94.5322C79.1254 94.5816 79.0507 94.6273 78.9749 94.6718C78.9544 94.6839 78.9328 94.6947 78.9111 94.7067C78.8461 94.7429 78.7799 94.7766 78.7125 94.8079C78.686 94.8211 78.6583 94.8331 78.6318 94.8452C78.6066 94.856 78.5813 94.8668 78.556 94.8765C78.5151 94.8933 78.4742 94.909 78.4332 94.9234C78.4068 94.933 78.3815 94.9415 78.355 94.9511C78.3141 94.9643 78.2731 94.9776 78.2322 94.9884C78.2033 94.9968 78.1756 95.0053 78.1468 95.0125C78.1046 95.0233 78.0613 95.0329 78.018 95.0426C77.9903 95.0486 77.9626 95.0546 77.9361 95.0606C77.8892 95.0691 77.841 95.0763 77.7929 95.0823C77.77 95.0859 77.7459 95.0895 77.7231 95.0919C77.652 95.1004 77.5798 95.1064 77.5088 95.1088L79.773 98.1963C79.7766 98.1963 79.7802 98.1951 79.7838 98.1951L79.785 98.1963C79.7922 98.1963 79.7994 98.1963 79.8079 98.1963C79.8416 98.1963 79.8741 98.1951 79.9078 98.1939C79.9222 98.1927 79.9367 98.1903 79.9511 98.1903C80.0233 98.1867 80.0955 98.1794 80.1666 98.1698C80.1882 98.1674 80.2087 98.165 80.2304 98.1626C80.3218 98.1493 80.4121 98.1313 80.5024 98.1084C80.5241 98.1036 80.5445 98.0964 80.565 98.0916C80.6119 98.0783 80.6601 98.0675 80.707 98.0518C80.7323 98.0434 80.7576 98.0338 80.7829 98.0254C80.8021 98.0193 80.8202 98.0121 80.8394 98.0061C80.9177 97.9772 80.9947 97.9471 81.0706 97.9134C81.0754 97.911 81.0802 97.9074 81.0862 97.9062C81.091 97.9038 81.097 97.9026 81.1031 97.899C81.1031 97.899 81.1031 97.8978 81.1018 97.8978C81.1018 97.8978 81.1018 97.899 81.1031 97.899C81.1873 97.8604 81.2692 97.8171 81.3498 97.7714C81.3522 97.7702 81.3534 97.769 81.3558 97.7678C81.3799 97.7545 81.4016 97.7389 81.4244 97.7244C81.4786 97.6919 81.5328 97.6594 81.5857 97.6233C81.5905 97.6209 81.5942 97.6185 81.599 97.6149C81.6315 97.5932 81.6616 97.5679 81.6929 97.5439C81.7302 97.5162 81.7675 97.4909 81.8024 97.462C81.8072 97.4584 81.8108 97.456 81.8156 97.4524C81.8493 97.4259 81.8794 97.3958 81.9119 97.3681C81.9396 97.3441 81.9685 97.3212 81.995 97.2959C82.001 97.2899 82.007 97.2851 82.0131 97.2791C82.0143 97.2779 82.0143 97.2779 82.0155 97.2766C82.0167 97.2754 82.0167 97.2754 82.0179 97.2742C82.0251 97.2682 82.0323 97.261 82.0383 97.255C82.054 97.2405 82.066 97.2237 82.0817 97.2092C82.1226 97.1683 82.1647 97.1274 82.2032 97.0841C82.2141 97.072 82.2237 97.0588 82.2345 97.0467C82.243 97.0371 82.2538 97.0275 82.2622 97.0179C82.2706 97.0082 82.2791 96.9974 82.2875 96.9878C82.3152 96.9541 82.3417 96.9204 82.3681 96.8854C82.373 96.8794 82.379 96.8734 82.3838 96.8662C82.385 96.8638 82.3862 96.8614 82.3886 96.859C82.444 96.7855 82.4957 96.7085 82.5451 96.6303C82.5499 96.6218 82.5559 96.6146 82.5607 96.6074C82.5656 96.6002 82.5692 96.5917 82.574 96.5845C82.6125 96.5207 82.6486 96.4569 82.6823 96.3895L98.9504 64.2988C98.972 64.2555 98.9937 64.2109 99.013 64.1676C99.0166 64.1604 99.019 64.1531 99.0214 64.1471C99.0406 64.1026 99.0587 64.058 99.0755 64.0147C99.0828 63.9954 99.0912 63.9762 99.0984 63.9569C99.1213 63.8943 99.1417 63.8305 99.1598 63.7679C99.1622 63.7583 99.1646 63.7487 99.167 63.7379C99.1815 63.6849 99.1947 63.6319 99.2055 63.579C99.2104 63.5573 99.214 63.5356 99.2176 63.514C99.2248 63.473 99.232 63.4321 99.238 63.3924C99.2417 63.3683 99.2441 63.3442 99.2465 63.319C99.2501 63.2817 99.2537 63.2431 99.2561 63.2058C99.2573 63.1805 99.2585 63.1565 99.2597 63.1312C99.2609 63.0939 99.2609 63.0578 99.2609 63.0216C99.2561 63.0012 99.2561 62.9771 99.2549 62.953Z" fill="#667185"/>
<path d="M79.6383 98.4766L76.9878 94.8619L77.4958 94.8415C77.5608 94.8391 77.6258 94.833 77.6908 94.8258C77.7016 94.8246 77.7124 94.8234 77.722 94.821L77.7546 94.8162C77.7979 94.8102 77.8412 94.8041 77.8845 94.7957C77.9002 94.7933 77.917 94.7897 77.9327 94.7861L77.9604 94.7801C77.9989 94.7716 78.0386 94.7632 78.0771 94.7536C78.0988 94.7476 78.1193 94.7416 78.1409 94.7355L78.1554 94.7307C78.1927 94.7199 78.2312 94.7091 78.2685 94.6958C78.2926 94.6874 78.3167 94.679 78.3408 94.6705C78.3781 94.6573 78.4166 94.6428 78.4539 94.6272C78.4816 94.6164 78.502 94.6079 78.5237 94.5983C78.5418 94.5911 78.5574 94.5827 78.5743 94.5742L78.5983 94.5634C78.6609 94.5345 78.7211 94.5032 78.7813 94.4707L78.8066 94.4575C78.8174 94.4515 78.8295 94.4454 78.8403 94.4394C78.9185 94.3937 78.9847 94.3528 79.0449 94.3106C79.1039 94.2697 79.1641 94.2252 79.2303 94.1722C79.2411 94.1626 79.2532 94.1541 79.264 94.1445L79.2893 94.1228C79.3278 94.0903 79.3663 94.0566 79.4036 94.0217C79.4217 94.0049 79.4385 93.988 79.4566 93.9712L79.4662 93.9616C79.5011 93.9278 79.5348 93.8917 79.5685 93.8568C79.5878 93.8364 79.6071 93.8147 79.6263 93.793C79.6636 93.7509 79.6973 93.7088 79.7322 93.6654L79.7515 93.6414C79.7599 93.6305 79.7683 93.6197 79.7768 93.6089C79.8297 93.5391 79.8779 93.468 79.92 93.3982C79.9537 93.3441 79.985 93.2899 80.0151 93.2345L80.0199 93.2237C80.0512 93.1647 80.0801 93.1057 80.1054 93.0455L80.2932 92.6146L80.3919 92.7494L96.4408 61.092C96.4649 61.0451 96.4854 60.9993 96.5058 60.9524C96.5239 60.9115 96.5396 60.8717 96.5552 60.8308L96.5757 60.7791C96.5961 60.7213 96.6154 60.6647 96.631 60.6069L96.6371 60.5804C96.6503 60.5323 96.6623 60.4841 96.672 60.4372L96.6828 60.3794C96.69 60.3421 96.696 60.306 96.7008 60.2699C96.7033 60.2542 96.7045 60.2374 96.7069 60.2205L96.7081 60.2049C96.7117 60.1712 96.7153 60.1375 96.7165 60.1038C96.7177 60.0821 96.7189 60.0604 96.7189 60.0388C96.7201 60.0051 96.7201 59.9726 96.7201 59.9401C96.7201 59.9184 96.7201 59.8979 96.7189 59.8763C96.7177 59.8438 96.7153 59.8101 96.7117 59.7776L96.7093 59.7559C96.7081 59.7439 96.7069 59.7318 96.7057 59.7186C96.7008 59.6825 96.6948 59.6464 96.6888 59.6103L96.6816 59.5645C96.6744 59.526 96.6647 59.4887 96.6551 59.4502L96.6491 59.4261C96.6346 59.3731 96.6202 59.3274 96.6033 59.2816L96.6009 59.2756C96.5757 59.207 96.548 59.142 96.5131 59.0734L96.5046 59.0554C96.4733 58.9952 96.4408 58.9398 96.4047 58.8844C96.3855 58.8555 96.3674 58.8279 96.3482 58.8002L96.7851 58.48C96.7863 58.4812 96.7875 58.4824 96.7875 58.4836L99.0493 61.5675C99.0709 61.5964 99.0914 61.6253 99.1107 61.6554L99.1275 61.6842C99.1672 61.7444 99.207 61.8118 99.2419 61.878L99.2503 61.8925C99.2575 61.9069 99.2623 61.919 99.2671 61.9298C99.3045 62.0032 99.3394 62.0827 99.3683 62.1633L99.3803 62.197C99.3971 62.2452 99.4164 62.3041 99.4333 62.3631C99.4357 62.374 99.4381 62.3836 99.4405 62.3944C99.4549 62.4486 99.4657 62.4967 99.4754 62.5461L99.479 62.5617C99.4802 62.5678 99.4826 62.581 99.4838 62.5942C99.4934 62.6484 99.5007 62.6941 99.5055 62.7399C99.5079 62.7591 99.5091 62.7784 99.5115 62.7977L99.5127 62.8145C99.5163 62.8554 99.5199 62.8964 99.5211 62.9385C99.5223 62.965 99.5223 62.9915 99.5235 63.0179C99.5247 63.0577 99.5235 63.0986 99.5223 63.1407C99.5211 63.1684 99.5199 63.1949 99.5187 63.2226C99.5163 63.2647 99.5127 63.3056 99.5079 63.3478L99.5067 63.3622C99.5043 63.3839 99.5019 63.4067 99.4995 63.4284C99.4934 63.4729 99.485 63.5175 99.4778 63.562L99.4742 63.5825C99.4718 63.5993 99.4682 63.6174 99.4645 63.6342C99.4525 63.692 99.4381 63.751 99.4224 63.8088C99.4188 63.8232 99.4164 63.8328 99.414 63.8413C99.3947 63.9099 99.3719 63.9797 99.3466 64.0483C99.3418 64.0628 99.3358 64.0772 99.3297 64.0916L99.3225 64.1097C99.3033 64.1579 99.284 64.206 99.2635 64.2542C99.2611 64.2614 99.2575 64.2698 99.2539 64.2782C99.2322 64.3252 99.2106 64.3721 99.1865 64.4203L82.9184 96.511C82.8847 96.576 82.8462 96.6458 82.8005 96.7228C82.7969 96.7301 82.7921 96.7385 82.7872 96.7469C82.7812 96.7566 82.7752 96.7662 82.7692 96.7746C82.715 96.8601 82.6621 96.9383 82.6079 97.0117L82.6127 97.0178L82.4634 97.1911L82.4622 97.1923L82.2552 97.4342L82.2456 97.4234C82.2383 97.4318 82.2299 97.439 82.2227 97.4475L82.1758 97.492C82.1553 97.5113 82.1348 97.5281 82.1144 97.5462L82.0554 97.5967C82.0313 97.6184 82.0072 97.6401 81.982 97.6605L81.9627 97.675C81.9386 97.6942 81.9085 97.7171 81.8784 97.7388L81.8182 97.7833C81.7954 97.8014 81.7713 97.8194 81.7472 97.8363L81.7268 97.8495C81.6774 97.8832 81.6196 97.9181 81.5619 97.953L81.5378 97.9687C81.5258 97.9771 81.5125 97.9843 81.5005 97.9928L81.5089 98.0036L81.2284 98.1348C81.2236 98.1372 81.2188 98.1396 81.214 98.1408L81.0166 98.2323L81.0118 98.2263C80.9853 98.2359 80.9576 98.2467 80.9287 98.2576L80.842 98.2877C80.8228 98.2949 80.8047 98.3009 80.7855 98.3069C80.7446 98.3202 80.7024 98.331 80.6615 98.3418L80.6121 98.3611C80.5965 98.3659 80.5808 98.3707 80.564 98.3743C80.4665 98.3984 80.3666 98.4177 80.2679 98.4333C80.251 98.4357 80.2354 98.4381 80.2185 98.4393L80.1981 98.4417C80.1186 98.4526 80.0392 98.4598 79.9633 98.4634C79.9453 98.4658 79.9308 98.467 79.9164 98.4682C79.8791 98.4694 79.843 98.4706 79.8069 98.4706H79.7816H79.7768L79.6383 98.4766ZM78.0001 95.3254L79.9068 97.9241C79.9164 97.9229 79.9248 97.9217 79.9345 97.9217C79.9995 97.9181 80.0657 97.9121 80.1307 97.9037L80.1884 97.8965C80.2715 97.8844 80.3545 97.8676 80.4364 97.8471L80.5267 97.823C80.5592 97.8146 80.5929 97.8062 80.6254 97.7953C80.6374 97.7917 80.6495 97.7869 80.6615 97.7833L80.747 97.7532C80.83 97.7231 80.8974 97.6954 80.9588 97.6678C80.9576 97.6678 80.9648 97.6641 80.972 97.6605L80.9937 97.6521C81.0671 97.6184 81.1418 97.5799 81.2152 97.5378L81.2272 97.5305C81.232 97.5269 81.2393 97.5233 81.2465 97.5185C81.2585 97.5101 81.2718 97.5028 81.2838 97.4944C81.3356 97.4631 81.3849 97.4342 81.4319 97.4017L81.4511 97.3897C81.4595 97.3837 81.4752 97.3716 81.4908 97.3596L81.5619 97.3066C81.5847 97.2898 81.6088 97.2729 81.6317 97.2549L81.6497 97.2416C81.6618 97.232 81.6786 97.2164 81.6955 97.2007L81.7689 97.1369C81.7821 97.1261 81.7966 97.114 81.8086 97.102L81.8592 97.0527C81.8688 97.0418 81.8784 97.031 81.8881 97.0214L81.9133 96.9961C81.9434 96.966 81.9723 96.9371 82.0012 96.9058C82.0145 96.8902 82.0217 96.8805 82.0289 96.8721C82.0373 96.8625 82.0445 96.854 82.053 96.8468L82.2588 97.019L82.0554 96.8444L82.0783 96.8179C82.1023 96.7891 82.124 96.7602 82.1469 96.7313C82.1553 96.7192 82.1613 96.7132 82.1661 96.7072L82.1709 96.7C82.2179 96.6374 82.2648 96.5688 82.313 96.4905C82.3178 96.4833 82.3238 96.4737 82.3298 96.4653C82.3298 96.4641 82.3346 96.4568 82.3382 96.4484C82.3732 96.3906 82.4069 96.3316 82.4382 96.2703L98.7062 64.1807C98.7267 64.141 98.7459 64.1001 98.764 64.0603L98.7724 64.0411C98.7905 64.0014 98.8061 63.9604 98.8218 63.9207L98.8422 63.869C98.8627 63.8112 98.882 63.7546 98.8976 63.6968L98.9048 63.6703C98.9181 63.6234 98.9301 63.5753 98.9397 63.5271L98.9506 63.4681C98.9578 63.432 98.9638 63.3947 98.9686 63.3586C98.971 63.3417 98.9722 63.3249 98.9746 63.308L98.9758 63.2936C98.9795 63.2599 98.9831 63.2262 98.9843 63.1925C98.9855 63.1708 98.9867 63.1492 98.9867 63.1263C98.9879 63.0938 98.9879 63.0613 98.9879 63.0288C98.9879 63.0071 98.9879 62.9854 98.9867 62.965C98.9855 62.9325 98.9831 62.8988 98.9795 62.8663L98.9783 62.8458C98.9771 62.8326 98.9758 62.8193 98.9746 62.8061C98.9698 62.77 98.965 62.7351 98.9578 62.699L98.9518 62.6592C98.9506 62.6544 98.9494 62.6508 98.9494 62.646C98.9433 62.6147 98.9337 62.5774 98.9241 62.5389L98.9181 62.5148C98.9048 62.4642 98.8904 62.4197 98.8747 62.3752C98.8735 62.3728 98.8711 62.3679 98.8699 62.3619C98.8458 62.2969 98.8182 62.2319 98.7832 62.1621L98.77 62.1356C98.7423 62.0827 98.711 62.0297 98.6749 61.9731L98.6593 61.9479C98.6496 61.9346 98.634 61.9117 98.6183 61.8901L97.2666 60.046C97.2666 60.0484 97.2666 60.052 97.2666 60.0544C97.2654 60.0821 97.2642 60.1098 97.263 60.1375C97.2606 60.1784 97.257 60.2205 97.2521 60.2627L97.2509 60.2783C97.2485 60.3 97.2461 60.3216 97.2437 60.3433C97.2377 60.3891 97.2293 60.4336 97.2208 60.4793L97.2172 60.4998C97.2148 60.5166 97.2112 60.5335 97.2076 60.5504C97.1956 60.6093 97.1811 60.6671 97.1643 60.7261L97.1571 60.7562C97.1366 60.8272 97.1149 60.8958 97.0896 60.9644C97.0848 60.9789 97.0788 60.9933 97.0728 61.0078L97.0656 61.0258C97.0463 61.074 97.0283 61.1221 97.0066 61.1703C96.9825 61.2256 96.9572 61.281 96.9283 61.3352L80.4821 93.775L80.3967 93.6582C80.3931 93.6642 80.3895 93.6715 80.3846 93.6775C80.3341 93.7605 80.2763 93.8436 80.2149 93.9266C80.2029 93.9423 80.1908 93.9579 80.1788 93.9736L80.1632 93.994C80.1222 94.0458 80.0813 94.0964 80.038 94.1457C80.0163 94.171 79.9934 94.1963 79.9694 94.2216C79.9296 94.2637 79.8899 94.3046 79.849 94.3455L79.8394 94.3552C79.8189 94.3756 79.7972 94.3961 79.7768 94.4165C79.7322 94.4575 79.6877 94.496 79.642 94.5345L79.6215 94.5526C79.6058 94.5658 79.5902 94.5803 79.5733 94.5923C79.4963 94.6537 79.4253 94.7066 79.3555 94.7548C79.2845 94.8041 79.2062 94.8535 79.1159 94.9053C79.1003 94.9149 79.0834 94.9233 79.0678 94.9317L79.0473 94.9426C78.9775 94.9811 78.9053 95.0184 78.8319 95.0521L78.8102 95.0617C78.7885 95.0726 78.7657 95.0822 78.744 95.093C78.7199 95.1039 78.6934 95.1147 78.6682 95.1243C78.6176 95.1448 78.5731 95.1616 78.5285 95.1785C78.5008 95.1881 78.472 95.199 78.4443 95.2086C78.3997 95.223 78.3552 95.2363 78.3107 95.2495L78.2962 95.2531C78.2697 95.2603 78.2433 95.2688 78.218 95.2748C78.1722 95.2868 78.1253 95.2965 78.0783 95.3073L78.0543 95.3121C78.0338 95.3193 78.017 95.3229 78.0001 95.3254Z" fill="#F9FAFB"/>
<path d="M94.6347 57.7256C96.5113 57.7256 97.5525 59.4998 96.6822 61.2151L80.4142 93.3059C79.8665 94.3856 78.7001 95.1138 77.5181 95.1126C78.7085 95.0633 79.8641 94.2724 80.354 93.1518L92.2755 65.8915C93.0109 64.2099 91.9601 62.5573 90.1533 62.5573H87.6183L88.3887 57.7256H94.6347Z" fill="#D0D5DD"/>
<path d="M77.5208 95.3831C77.5196 95.3831 77.5184 95.3831 77.5172 95.3831L77.5063 94.8414C78.5933 94.7969 79.6622 94.0578 80.1051 93.0431L92.0266 65.7828C92.3444 65.0557 92.3083 64.3034 91.9255 63.7196C91.5548 63.1539 90.9096 62.8289 90.1525 62.8289H87.3009L88.1579 57.4556H94.6339C95.6064 57.4556 96.431 57.8901 96.8968 58.6496C97.3735 59.426 97.3831 60.4323 96.9233 61.3387L80.6552 93.427C80.0618 94.597 78.8027 95.3831 77.5208 95.3831ZM87.9376 62.286H90.1549C91.0974 62.286 91.9087 62.7001 92.3805 63.4223C92.8644 64.1626 92.9174 65.1015 92.5238 65.9995L83.5501 86.519L96.4406 61.092C96.821 60.3433 96.8186 59.5548 96.4358 58.9313C96.0711 58.3367 95.4151 57.996 94.6351 57.996H88.6213L87.9376 62.286Z" fill="#F9FAFB"/>
<path d="M94.7735 67.7663C94.7711 67.7254 94.7687 67.6845 94.7638 67.6436C94.7614 67.6231 94.759 67.6026 94.7566 67.5822C94.7518 67.5461 94.747 67.5099 94.7398 67.4738C94.7374 67.463 94.7374 67.4522 94.7349 67.4413C94.7325 67.4305 94.7301 67.4209 94.7277 67.41C94.7205 67.3775 94.7133 67.3438 94.7049 67.3113C94.7 67.2909 94.694 67.2704 94.6892 67.2499C94.6796 67.2162 94.6687 67.1825 94.6567 67.1488C94.6519 67.1356 94.6483 67.1211 94.6435 67.1079C94.6423 67.1055 94.6411 67.1031 94.6399 67.0995C94.611 67.0212 94.5785 66.9466 94.5411 66.8732C94.5375 66.8672 94.5363 66.8599 94.5327 66.8539C94.5303 66.8491 94.5267 66.8455 94.5243 66.8407C94.4906 66.7769 94.4545 66.7155 94.416 66.6565C94.4124 66.6517 94.4099 66.6469 94.4075 66.6421C94.3895 66.6156 94.3714 66.5903 94.3534 66.565L92.0892 63.4775C92.1109 63.5076 92.1313 63.5389 92.1518 63.5702C92.1903 63.6304 92.2276 63.6918 92.2601 63.7544C92.2661 63.7652 92.271 63.7761 92.277 63.7869C92.3143 63.8603 92.3468 63.9362 92.3757 64.0132C92.3817 64.03 92.3865 64.0457 92.3925 64.0625C92.4034 64.0962 92.4154 64.1299 92.425 64.1637C92.4311 64.1841 92.4359 64.2046 92.4407 64.225C92.4491 64.2575 92.4563 64.29 92.4636 64.3237C92.4684 64.3454 92.472 64.3659 92.4756 64.3875C92.4816 64.4236 92.4876 64.4598 92.4924 64.4959C92.4949 64.5163 92.4985 64.5368 92.4997 64.5573C92.5033 64.5982 92.5069 64.6391 92.5081 64.68C92.5093 64.6969 92.5105 64.7137 92.5105 64.7306C92.5117 64.7884 92.5117 64.8474 92.5093 64.9063C92.5093 64.916 92.5081 64.9256 92.5069 64.9364C92.5045 64.9858 92.5009 65.0351 92.4948 65.0857C92.4924 65.1061 92.4888 65.1266 92.4864 65.1471C92.4804 65.1868 92.4744 65.2277 92.4672 65.2674C92.4636 65.2903 92.4587 65.3132 92.4539 65.3361C92.4455 65.3746 92.4359 65.4143 92.4262 65.454C92.4202 65.4769 92.4142 65.4998 92.4082 65.5226C92.3961 65.5648 92.3829 65.6069 92.3685 65.649C92.3612 65.6683 92.3552 65.6887 92.348 65.708C92.3263 65.7694 92.3011 65.832 92.2746 65.8934L80.3531 93.1536C80.3242 93.2199 80.2929 93.2836 80.2592 93.3474C80.2568 93.3523 80.2544 93.3559 80.2532 93.3607C80.2207 93.4221 80.1858 93.4811 80.1497 93.54C80.1003 93.6195 80.0486 93.6953 79.9932 93.7699C79.9775 93.7916 79.9607 93.8109 79.945 93.8313C79.9077 93.8783 79.8704 93.9252 79.8307 93.971C79.8102 93.995 79.7886 94.0179 79.7669 94.0408C79.7308 94.0793 79.6935 94.1178 79.6549 94.1551C79.6321 94.1768 79.6104 94.1997 79.5875 94.2201C79.5466 94.2574 79.5045 94.2936 79.4624 94.3297C79.4407 94.3477 79.4202 94.3658 79.3986 94.3838C79.3336 94.4368 79.2661 94.4874 79.1963 94.5343C79.1241 94.5837 79.0495 94.6294 78.9737 94.6739C78.9532 94.686 78.9315 94.6968 78.9099 94.7088C78.8449 94.7449 78.7786 94.7786 78.7112 94.8099C78.6848 94.8232 78.6571 94.8352 78.6306 94.8473C78.6053 94.8581 78.58 94.8689 78.5548 94.8786C78.5138 94.8954 78.4729 94.9111 78.432 94.9255C78.4055 94.9351 78.3802 94.9436 78.3537 94.9532C78.3128 94.9664 78.2719 94.9797 78.231 94.9905C78.2021 94.9989 78.1744 95.0074 78.1455 95.0146C78.1034 95.0254 78.06 95.035 78.0167 95.0447C77.989 95.0507 77.9613 95.0567 77.9349 95.0627C77.8879 95.0711 77.8398 95.0784 77.7916 95.0844C77.7687 95.088 77.7447 95.0916 77.7218 95.094C77.6508 95.1024 77.5786 95.1085 77.5075 95.1109L36.8958 95.1133C36.0761 95.1133 35.3803 94.763 34.9614 94.1924L37.2256 97.2799C37.6445 97.8505 38.3402 98.2008 39.1599 98.2008L79.7717 98.1984C79.8439 98.196 79.9149 98.1899 79.986 98.1815C80.01 98.1791 80.0329 98.1743 80.0558 98.1719C80.1039 98.1659 80.1509 98.1586 80.1978 98.1502C80.2255 98.1454 80.2532 98.1382 80.2809 98.1322C80.3242 98.1225 80.3663 98.1141 80.4085 98.1021C80.4374 98.0948 80.4662 98.0864 80.4951 98.078C80.5204 98.0708 80.5457 98.0648 80.571 98.0563C80.5866 98.0515 80.6023 98.0455 80.6179 98.0407C80.6444 98.0323 80.6697 98.0226 80.6962 98.013C80.7371 97.9986 80.778 97.9817 80.8189 97.9661C80.8442 97.9552 80.8695 97.9456 80.8948 97.9348C80.908 97.9287 80.9212 97.9239 80.9333 97.9191C80.9477 97.9131 80.961 97.9047 80.9754 97.8974C81.0428 97.8662 81.109 97.8324 81.174 97.7963C81.1885 97.7891 81.2029 97.7831 81.2161 97.7747C81.2234 97.7699 81.2306 97.765 81.2378 97.7614C81.3859 97.676 81.5279 97.5785 81.6615 97.4713C81.6663 97.4677 81.6723 97.4641 81.6772 97.4593C81.694 97.4461 81.7085 97.4304 81.7253 97.4172C81.7674 97.3811 81.8096 97.3449 81.8505 97.3076C81.8589 97.2992 81.8686 97.292 81.8782 97.2836C81.8926 97.2703 81.9047 97.2559 81.9191 97.2414C81.9576 97.2041 81.9949 97.1656 82.0311 97.1271C82.0431 97.1138 82.0551 97.103 82.0672 97.0898C82.0768 97.0789 82.0852 97.0681 82.0949 97.0573C82.1346 97.0115 82.1719 96.9658 82.2092 96.9176C82.2212 96.902 82.2345 96.8875 82.2465 96.8719C82.2501 96.8671 82.2537 96.8611 82.2586 96.855C82.3139 96.7804 82.3669 96.7034 82.415 96.6251C82.4174 96.6215 82.4211 96.6179 82.4235 96.6131C82.4572 96.5577 82.4885 96.5024 82.5186 96.4458C82.521 96.441 82.5234 96.4361 82.5258 96.4313C82.5523 96.3796 82.5787 96.3278 82.6028 96.2748C82.6088 96.2628 82.6136 96.2496 82.6197 96.2375L94.5411 68.9773C94.5676 68.9159 94.5917 68.8533 94.6146 68.7919C94.6218 68.7714 94.6278 68.7522 94.635 68.7329C94.6495 68.6908 94.6627 68.6486 94.6748 68.6065C94.6808 68.5836 94.6868 68.5608 94.6928 68.5379C94.7024 68.4982 94.7121 68.4597 94.7205 68.4199C94.7253 68.3971 94.7301 68.3742 94.7337 68.3513C94.741 68.3116 94.747 68.2707 94.753 68.231C94.7554 68.2105 94.759 68.19 94.7614 68.1696C94.7674 68.119 94.7711 68.0697 94.7735 68.0203C94.7735 68.0107 94.7747 68.0011 94.7759 67.9902C94.7783 67.9312 94.7783 67.8723 94.7771 67.8145C94.7759 67.8 94.7747 67.7832 94.7735 67.7663Z" fill="#D0D5DD"/>
<path d="M39.16 98.4727C38.2729 98.4727 37.4881 98.0972 37.0078 97.4412L34.7437 94.3537L35.1806 94.0335L35.183 94.0359C35.561 94.5487 36.1857 94.8436 36.8971 94.8436L77.5088 94.8412C77.563 94.8388 77.628 94.8327 77.693 94.8255C77.7038 94.8243 77.7147 94.8231 77.7243 94.8207L77.7568 94.8159C77.8001 94.8099 77.8435 94.8039 77.8868 94.7954C77.9024 94.793 77.9193 94.7894 77.9349 94.7858L77.9626 94.7798C78.0011 94.7714 78.0409 94.7629 78.0794 94.7533C78.1011 94.7473 78.1215 94.7413 78.1432 94.7352L78.1576 94.7304C78.1949 94.7196 78.2335 94.7088 78.2708 94.6955C78.2948 94.6871 78.3189 94.6787 78.343 94.6703C78.3803 94.657 78.4188 94.6426 78.4561 94.6269C78.4838 94.6161 78.5043 94.6077 78.526 94.598C78.544 94.5908 78.5597 94.5824 78.5765 94.5739L78.6006 94.5631C78.6632 94.5342 78.7234 94.5029 78.7836 94.4704L78.8088 94.4572C78.8197 94.4512 78.8317 94.4452 78.8425 94.4391C78.9208 94.3934 78.987 94.3525 79.0472 94.3103C79.1061 94.2694 79.1663 94.2249 79.2325 94.1719C79.2434 94.1623 79.2554 94.1539 79.2662 94.1442L79.2915 94.1226C79.33 94.0901 79.3686 94.0564 79.4059 94.0215C79.4239 94.0046 79.4408 93.9878 79.4588 93.9709L79.4685 93.9613C79.5034 93.9276 79.5371 93.8915 79.5708 93.8565C79.59 93.8361 79.6093 93.8144 79.6286 93.7927C79.6659 93.7506 79.6996 93.7085 79.7345 93.6652L79.7537 93.6411C79.7622 93.6302 79.7706 93.6194 79.779 93.6086C79.832 93.5388 79.8801 93.4678 79.9223 93.3979C79.956 93.3438 79.9873 93.2896 80.0174 93.2342L80.0222 93.2234C80.0535 93.1644 80.0824 93.1054 80.1076 93.0453L92.0291 65.785C92.0532 65.7284 92.0761 65.6718 92.0965 65.6165L92.1146 65.5623C92.1266 65.525 92.1398 65.4865 92.1507 65.4479C92.1555 65.4287 92.1615 65.4094 92.1663 65.3902C92.1772 65.3504 92.1856 65.3155 92.1928 65.2806C92.1976 65.2602 92.2012 65.2397 92.2048 65.2192C92.2121 65.1819 92.2169 65.1458 92.2217 65.1109L92.2289 65.0567C92.2337 65.0122 92.2373 64.9677 92.2398 64.9231L92.241 64.9003C92.2434 64.8437 92.2434 64.7919 92.2422 64.7402L92.2398 64.6956C92.2373 64.6583 92.2361 64.6222 92.2313 64.5873C92.2301 64.5728 92.2277 64.5596 92.2265 64.5476L92.2241 64.5331C92.2193 64.5006 92.2145 64.4693 92.2097 64.4368C92.2061 64.4176 92.2024 64.3995 92.1988 64.3803C92.1928 64.3514 92.1856 64.3225 92.1784 64.2936L92.1639 64.2394C92.1555 64.2105 92.1459 64.1804 92.1362 64.1503L92.1218 64.107C92.0977 64.042 92.07 63.977 92.0351 63.9084L92.0207 63.8795C91.9918 63.8241 91.9605 63.77 91.9256 63.7182C91.9087 63.6917 91.8907 63.6653 91.8726 63.64L91.8714 63.6376L92.3084 63.3174C92.3084 63.3174 92.3084 63.3174 92.3084 63.3186L94.5725 66.4049C94.593 66.4338 94.6135 66.4627 94.6339 66.4915L94.6484 66.5144C94.6905 66.5794 94.729 66.6444 94.7639 66.7094C94.7675 66.7154 94.7711 66.7215 94.7748 66.7275L94.7892 66.7588C94.8301 66.8406 94.8638 66.9189 94.8927 66.9959L94.8987 67.0128C94.9048 67.0284 94.9084 67.0404 94.912 67.0525C94.9276 67.0994 94.9397 67.1379 94.9517 67.1765C94.9577 67.1969 94.9625 67.2174 94.9685 67.2378C94.9794 67.2812 94.989 67.3173 94.9962 67.3546C94.9998 67.369 95.0023 67.3787 95.0035 67.3883C95.0059 67.4015 95.0071 67.4112 95.0083 67.422C95.0167 67.4665 95.0227 67.5075 95.0275 67.5472C95.0311 67.5773 95.0336 67.5966 95.036 67.617C95.0408 67.6628 95.0432 67.7085 95.0456 67.7542L95.0468 67.7699C95.048 67.7831 95.0492 67.7964 95.0492 67.8108C95.0516 67.8758 95.0516 67.9408 95.048 68.0058L95.0456 68.0335C95.042 68.0937 95.0384 68.1478 95.0311 68.2032C95.0287 68.2201 95.0263 68.2369 95.0239 68.2526L95.0215 68.2706C95.0155 68.314 95.0083 68.3585 94.9998 68.403C94.995 68.4283 94.9902 68.4536 94.9854 68.4777C94.9758 68.521 94.9661 68.5643 94.9553 68.6077C94.9493 68.6329 94.9421 68.6582 94.9348 68.6835C94.9216 68.7292 94.9072 68.775 94.8915 68.8219L94.8855 68.8388C94.8807 68.8544 94.8747 68.8713 94.8686 68.8869C94.8446 68.9531 94.8181 69.0205 94.7892 69.0879L82.8485 96.3903C82.8232 96.4469 82.7943 96.5035 82.7654 96.5589L82.7582 96.5733C82.7245 96.6359 82.6908 96.6973 82.6535 96.7563L82.6414 96.7743C82.5897 96.8586 82.5343 96.9392 82.4741 97.0187C82.4729 97.0211 82.4681 97.0283 82.4621 97.0367C82.4524 97.05 82.4416 97.062 82.4308 97.074L82.4211 97.0861C82.3802 97.1378 82.3393 97.1884 82.2972 97.2365C82.2851 97.2522 82.2767 97.2618 82.2671 97.2727C82.2574 97.2835 82.2478 97.2931 82.237 97.3039L82.2286 97.3124C82.1888 97.3545 82.1491 97.3954 82.1082 97.4364L82.0973 97.4472C82.0865 97.4592 82.0757 97.4701 82.0636 97.4809C82.0552 97.4893 82.0468 97.4965 82.0384 97.5038C81.9902 97.5483 81.9445 97.5868 81.8987 97.6253L81.8843 97.6374C81.8723 97.6482 81.859 97.6602 81.8458 97.6699L81.8253 97.6855C81.6857 97.7975 81.5316 97.9022 81.3715 97.9961C81.3655 97.9997 81.3571 98.0057 81.3486 98.0105C81.3354 98.0178 81.3234 98.0238 81.3101 98.031C81.2331 98.0731 81.1609 98.1092 81.0886 98.1441C81.0682 98.155 81.0561 98.161 81.0429 98.167C81.0333 98.1718 81.0224 98.1754 81.0116 98.1802C80.9731 98.1971 80.9454 98.2079 80.9177 98.2188C80.8744 98.2368 80.8299 98.2537 80.7853 98.2693C80.7576 98.279 80.7287 98.2898 80.7011 98.2994L80.6866 98.3042C80.6746 98.309 80.6625 98.3127 80.6505 98.3163C80.6324 98.3223 80.6132 98.3271 80.5939 98.3331L80.5542 98.344C80.5277 98.3512 80.5012 98.3596 80.4748 98.3656C80.429 98.3777 80.3821 98.3873 80.3363 98.3981L80.3135 98.4029C80.2918 98.4077 80.2689 98.4126 80.2473 98.4174C80.1955 98.427 80.1437 98.4342 80.092 98.4414L80.0691 98.4451C80.0511 98.4475 80.033 98.4511 80.0149 98.4523C79.9331 98.4619 79.8561 98.4679 79.7802 98.4703L39.16 98.4727ZM36.0906 95.2745L37.4448 97.1198C37.8227 97.635 38.4474 97.9299 39.16 97.9299L79.7718 97.9275C79.826 97.9251 79.891 97.919 79.956 97.9118C79.9668 97.9106 79.9776 97.9094 79.9885 97.907L80.0198 97.9022C80.0631 97.8962 80.1064 97.8902 80.1498 97.8817C80.1666 97.8781 80.1823 97.8745 80.1979 97.8709L80.2244 97.8649C80.2629 97.8565 80.3026 97.848 80.3411 97.8384C80.3628 97.8324 80.3845 97.8264 80.4049 97.8203L80.4555 97.8059C80.4675 97.8023 80.4784 97.7999 80.4904 97.7963L80.5337 97.7806C80.5566 97.7734 80.5807 97.7638 80.6048 97.7553C80.6421 97.7421 80.6806 97.7277 80.7179 97.712C80.742 97.7024 80.7648 97.6927 80.7877 97.6831L80.8299 97.6651C80.8407 97.659 80.8515 97.653 80.8624 97.6482C80.9237 97.6193 80.9851 97.588 81.0453 97.5555C81.0561 97.5495 81.067 97.5447 81.0778 97.5387C81.0886 97.5327 81.0959 97.5278 81.1043 97.523C81.2415 97.4436 81.3727 97.3533 81.4943 97.2558L81.5244 97.2317C81.534 97.2233 81.5436 97.2149 81.5533 97.2064C81.5918 97.1739 81.6315 97.1402 81.6688 97.1053C81.6761 97.0993 81.6833 97.0921 81.6917 97.0861L81.7061 97.0716C81.7146 97.0632 81.723 97.0548 81.7314 97.0464C81.7675 97.0115 81.8012 96.9765 81.8349 96.9404C81.8422 96.932 81.8506 96.9236 81.859 96.9152L81.8674 96.9055C81.8783 96.8923 81.8855 96.8839 81.8927 96.8754C81.9288 96.8333 81.9637 96.7912 81.9986 96.7478C82.0059 96.7382 82.0143 96.7286 82.0227 96.7177L82.0323 96.7057C82.0323 96.7045 82.0372 96.6973 82.0432 96.6901C82.0949 96.6202 82.1431 96.5492 82.1864 96.4794L82.1973 96.4638C82.2273 96.4144 82.255 96.3663 82.2815 96.3169L82.2887 96.3013C82.3116 96.2567 82.3357 96.2098 82.3574 96.1616L82.373 96.1279L94.2945 68.8677C94.3186 68.8111 94.3414 68.7557 94.3607 68.6991L94.3787 68.645C94.392 68.6065 94.404 68.5679 94.4148 68.5306C94.4209 68.5102 94.4257 68.4897 94.4317 68.4692C94.4413 68.4331 94.4498 68.3982 94.457 68.3633C94.4618 68.3428 94.4654 68.3224 94.469 68.3019C94.4762 68.2658 94.4811 68.2297 94.4859 68.1936L94.4931 68.1382C94.4979 68.0937 94.5015 68.0503 94.5039 68.0058L94.5051 67.9853C94.5075 67.9264 94.5075 67.8746 94.5063 67.824L94.5039 67.7795C94.5015 67.7434 94.4991 67.7073 94.4955 67.6712C94.4943 67.6567 94.4919 67.6411 94.4895 67.6266C94.4835 67.5845 94.4786 67.5532 94.4738 67.5207C94.4726 67.5123 94.4714 67.5039 94.4702 67.4942C94.4678 67.481 94.4654 67.4726 94.463 67.4629C94.457 67.4365 94.451 67.4076 94.4425 67.3787C94.4365 67.3558 94.4329 67.3402 94.4281 67.3257C94.4197 67.2956 94.41 67.2655 94.3992 67.2354L94.3908 67.2078C94.3884 67.2017 94.386 67.1957 94.3836 67.1897C94.3607 67.1271 94.333 67.0633 94.2981 66.9947L94.2836 66.9658C94.256 66.9116 94.2235 66.8575 94.1886 66.8045L94.1765 66.7853C94.1633 66.766 94.1488 66.7455 94.1332 66.7239L92.7814 64.881C92.7814 64.893 92.7802 64.9051 92.7802 64.9159L92.7778 64.9436C92.7742 65.0038 92.7706 65.0591 92.7634 65.1145C92.761 65.1314 92.7586 65.1482 92.7561 65.1651L92.7537 65.1831C92.7477 65.2277 92.7405 65.2722 92.7321 65.3167C92.7273 65.3408 92.7224 65.3661 92.7176 65.3914C92.708 65.4347 92.6984 65.478 92.6875 65.5214C92.6803 65.549 92.6743 65.5731 92.6671 65.596C92.6538 65.6417 92.6394 65.6875 92.6237 65.7344L92.6165 65.7549C92.6117 65.7693 92.6069 65.785 92.6009 65.7994C92.5768 65.8668 92.5503 65.9342 92.5202 66.0016L80.5987 93.2619C80.5686 93.3293 80.5361 93.3991 80.4964 93.4738L80.4916 93.4846C80.4543 93.5556 80.4158 93.6194 80.3773 93.6832C80.3267 93.7663 80.2689 93.8493 80.2075 93.9324C80.1955 93.948 80.1835 93.9637 80.1714 93.9793L80.1558 93.9998C80.1148 94.0515 80.0739 94.1021 80.0306 94.1515C80.0089 94.1767 79.9861 94.202 79.962 94.2273C79.9223 94.2694 79.8825 94.3103 79.8416 94.3513L79.832 94.3609C79.8115 94.3814 79.7899 94.4018 79.7694 94.4223C79.7249 94.4632 79.6803 94.5017 79.6346 94.5402L79.6141 94.5583C79.5985 94.5715 79.5828 94.586 79.566 94.598C79.4889 94.6594 79.4179 94.7124 79.3481 94.7605C79.2771 94.8099 79.1988 94.8592 79.1086 94.911C79.0929 94.9206 79.0761 94.929 79.0604 94.9375L79.0399 94.9483C78.9701 94.9868 78.8979 95.0241 78.8245 95.0578L78.8028 95.0675C78.7811 95.0783 78.7583 95.0879 78.7366 95.0988C78.7125 95.1096 78.6861 95.1204 78.6608 95.1301C78.6102 95.1505 78.5657 95.1674 78.5211 95.1842C78.4935 95.1939 78.4646 95.2047 78.4369 95.2143C78.3924 95.2288 78.3478 95.242 78.3033 95.2553L78.2888 95.2589C78.2624 95.2661 78.2359 95.2745 78.2106 95.2805C78.1648 95.2926 78.1179 95.3022 78.071 95.313L78.0469 95.3178C78.0252 95.3227 78.0036 95.3275 77.9807 95.3311C77.9289 95.3407 77.8772 95.3479 77.8254 95.3552L77.8025 95.3588C77.7845 95.3612 77.7676 95.3636 77.7496 95.366C77.6677 95.3756 77.5907 95.3816 77.5148 95.384L36.8923 95.3864C36.6142 95.3852 36.3446 95.3467 36.0906 95.2745ZM82.6402 96.7755L82.639 96.7779C82.6402 96.7767 82.6402 96.7767 82.6402 96.7755ZM82.1997 96.4614C82.1997 96.4626 82.1985 96.4626 82.1985 96.4638L82.1997 96.4614Z" fill="#F9FAFB"/>
<path d="M92.601 48.6144L90.3369 45.5269L88.3917 57.724L87.6201 62.5556H90.1551C90.2297 62.5556 90.3044 62.5581 90.3754 62.5641L90.6559 60.8103V60.8091L92.601 48.6144Z" fill="#E4E7EC"/>
<path d="M90.604 62.8562L90.3536 62.8357C90.2898 62.8309 90.2224 62.8273 90.155 62.8273H87.3022L90.1707 44.8428L92.8862 48.5442L90.9422 60.7365L90.9242 60.8544L90.604 62.8562ZM87.9378 62.2856H90.1466L90.3885 60.769L92.3157 48.6838L90.5017 46.2102L87.9378 62.2856Z" fill="#F9FAFB"/>
<path d="M92.2768 65.8898L80.3553 93.1501C79.8654 94.2707 78.7099 95.0628 77.5074 95.1109L36.8956 95.1133C35.6522 95.1133 34.694 94.3069 34.5556 93.1489L30.7591 61.0582C30.5605 59.3766 32.1374 57.7251 33.9429 57.7251H48.7015C49.945 57.7251 50.9055 58.5292 51.0427 59.6871L51.1499 60.5935C51.2871 61.7527 52.2452 62.558 53.4899 62.558H90.1559C90.2305 62.558 90.3052 62.5604 90.3762 62.5664C92.0457 62.694 92.981 64.2781 92.2768 65.8898Z" fill="#D0D5DD"/>
<path d="M36.8946 95.3854C35.5127 95.3854 34.4402 94.4791 34.2862 93.1827L30.4897 61.0895C30.391 60.2529 30.6907 59.3706 31.3142 58.6701C32.0015 57.8973 32.9597 57.4531 33.9431 57.4531H48.7017C50.0848 57.4531 51.1585 58.3583 51.3113 59.6547L51.4185 60.5611C51.5388 61.577 52.3899 62.286 53.4888 62.286H90.1549C90.2379 62.286 90.3186 62.2896 90.398 62.2956C91.2695 62.363 92.011 62.8024 92.4311 63.5005C92.868 64.2264 92.9017 65.1376 92.5262 65.9982L80.6047 93.2585C80.0726 94.4754 78.8328 95.3289 77.5196 95.3818L36.8946 95.3854ZM33.9431 57.996C33.1258 57.996 32.2952 58.3824 31.7187 59.03C31.1987 59.615 30.9471 60.342 31.0277 61.0257L34.8242 93.1189C34.9446 94.1348 35.7956 94.8438 36.8946 94.8438L77.5063 94.8414C78.5897 94.798 79.6622 94.0578 80.1063 93.043L92.029 65.7828C92.3336 65.0846 92.3107 64.3552 91.9664 63.781C91.6378 63.2345 91.0516 62.8903 90.3559 62.8373C90.2909 62.8325 90.2235 62.8289 90.1561 62.8289H53.4888C52.107 62.8289 51.0345 61.9225 50.8804 60.6261L50.7733 59.7197C50.6529 58.705 49.8007 57.996 48.7017 57.996H33.9431Z" fill="#F9FAFB"/>
<path d="M87.6201 62.8277H53.4891C52.1072 62.8277 51.0335 61.9225 50.8794 60.6261L50.7735 59.7197C50.6531 58.705 49.8009 57.996 48.7019 57.996H38.9917C38.9122 57.996 38.8376 57.9611 38.7858 57.9009C38.7341 57.8407 38.7124 57.7613 38.7244 57.6831L39.2649 54.291C39.2854 54.1598 39.3997 54.0623 39.5321 54.0623H46.3716L48.46 40.966H41.7072C41.6278 40.966 41.5531 40.9311 41.5014 40.8709C41.4496 40.8107 41.428 40.7313 41.44 40.6531L42.6991 32.7556C42.7195 32.6244 42.8339 32.5269 42.9663 32.5269H79.1701C79.2483 32.5269 79.3217 32.5606 79.3735 32.6195L79.5637 32.8362C79.6167 32.8964 79.6407 32.9782 79.6275 33.0577L77.6835 45.256H90.3356C90.4151 45.256 90.4897 45.2909 90.5415 45.3511C90.5932 45.4113 90.6149 45.4907 90.6029 45.569L87.8873 62.599C87.8668 62.7314 87.7537 62.8277 87.6201 62.8277ZM39.3094 57.4544H48.7031C50.085 57.4544 51.1587 58.3595 51.3128 59.6559L51.4187 60.5623C51.5391 61.577 52.3913 62.286 53.4903 62.286H87.389L90.0191 45.7977H77.3669C77.2875 45.7977 77.2129 45.7628 77.1611 45.7026C77.1093 45.6424 77.0877 45.563 77.0997 45.4847L79.0738 33.0974L79.0485 33.0685H43.1986L42.025 40.4244H48.7778C48.8572 40.4244 48.9318 40.4593 48.9836 40.5194C49.0354 40.5796 49.057 40.6591 49.045 40.7373L46.8699 54.3753C46.8494 54.5065 46.7351 54.604 46.6027 54.604H39.7632L39.3094 57.4544ZM74.5984 59.408H52.3347C52.0711 59.408 51.828 59.3008 51.6679 59.1131C51.5102 58.9277 51.4452 58.6857 51.4849 58.433C51.5643 57.9334 52.0302 57.5422 52.5454 57.5422H74.8091C75.0715 57.5422 75.3146 57.6494 75.4735 57.8359C75.6324 58.0213 75.6974 58.2644 75.6565 58.5184C75.577 59.0168 75.1124 59.408 74.5984 59.408ZM52.5454 58.0839C52.2986 58.0839 52.0579 58.2825 52.0205 58.5184C52.0049 58.6135 52.0266 58.6978 52.0807 58.7616C52.1385 58.829 52.2288 58.8663 52.3347 58.8663H74.5984C74.8452 58.8663 75.0847 58.6677 75.122 58.433C75.1377 58.3379 75.116 58.2512 75.0618 58.1874C75.0041 58.12 74.915 58.0839 74.8091 58.0839H52.5454ZM75.3062 54.9711H53.0413C52.7777 54.9711 52.5357 54.864 52.3756 54.6762C52.2168 54.4908 52.1518 54.2489 52.1927 53.9949C52.2721 53.4966 52.738 53.1054 53.2531 53.1054H75.5168C75.7805 53.1054 76.0224 53.2125 76.1825 53.3991C76.3402 53.5844 76.4052 53.8264 76.3655 54.0804C76.2848 54.5799 75.8202 54.9711 75.3062 54.9711ZM53.2531 53.647C53.0064 53.647 52.7656 53.8456 52.7283 54.0804C52.7127 54.1767 52.7343 54.2609 52.7885 54.3247C52.8463 54.3921 52.9366 54.4294 53.0425 54.4294H75.3062C75.553 54.4294 75.7925 54.2308 75.8298 53.9949C75.8454 53.8986 75.825 53.8144 75.7696 53.7506C75.7118 53.6832 75.6228 53.647 75.5168 53.647H53.2531ZM76.014 50.5319H53.7503C53.4867 50.5319 53.2435 50.4247 53.0834 50.2369C52.9257 50.0516 52.8607 49.8096 52.9005 49.5569C52.9799 49.0573 53.4457 48.6661 53.9609 48.6661H76.2246C76.487 48.6661 76.7302 48.7732 76.8891 48.9598C77.048 49.1452 77.113 49.3883 77.072 49.6423C76.9926 50.1419 76.528 50.5319 76.014 50.5319ZM53.9609 49.2078C53.7142 49.2078 53.4734 49.4064 53.4361 49.6423C53.4205 49.7374 53.4409 49.8217 53.4963 49.8855C53.5541 49.9529 53.6443 49.9902 53.7503 49.9902H76.014C76.2607 49.9902 76.5003 49.7916 76.5376 49.5569C76.5532 49.4618 76.5316 49.3751 76.4774 49.3113C76.4196 49.2439 76.3305 49.2078 76.2246 49.2078H53.9609Z" fill="#F9FAFB"/>
<path d="M34.451 40.4761L32.2061 54.5522H46.7901L49.035 40.4761H34.451ZM46.9346 42.2383L45.2518 52.7888H34.3029L35.9857 42.2383H46.9346Z" fill="#D0D5DD"/>
<path d="M79.3624 33.0156L90.3378 45.5269H77.3667L79.3624 33.0156Z" fill="#D0D5DD"/>
<path d="M90.3378 45.7973H77.3667C77.2872 45.7973 77.2126 45.7624 77.1608 45.7022C77.1091 45.6421 77.0874 45.5626 77.0994 45.4844L79.0952 32.9731C79.112 32.8696 79.1867 32.7841 79.2878 32.7552C79.3889 32.7263 79.4972 32.7576 79.567 32.8371L90.5424 45.3484C90.6122 45.4278 90.6291 45.5421 90.5857 45.6384C90.54 45.7359 90.4437 45.7973 90.3378 45.7973ZM77.6844 45.2557H89.7395L79.5381 33.6279L77.6844 45.2557Z" fill="#F9FAFB"/>
<path d="M76.8505 48.9939C76.6988 48.8158 76.4761 48.7183 76.2258 48.7183H53.9609C53.4709 48.7183 53.0268 49.0902 52.9522 49.5657C52.9136 49.804 52.975 50.0303 53.1231 50.2048C53.2735 50.3806 53.5022 50.4817 53.7502 50.4817H76.0139C76.5038 50.4817 76.9456 50.1097 77.0214 49.6355C77.0599 49.396 76.9985 49.1684 76.8505 48.9939Z" fill="#D0D5DD"/>
<path d="M75.517 53.1572H53.2533C52.7634 53.1572 52.3205 53.5292 52.2446 54.0034C52.2061 54.2418 52.2675 54.4693 52.4156 54.6426C52.566 54.8183 52.7935 54.9195 53.0427 54.9195H75.3064C75.7963 54.9195 76.2381 54.5475 76.3139 54.072C76.3524 53.8337 76.291 53.6062 76.143 53.4329C75.9937 53.2571 75.765 53.1572 75.517 53.1572Z" fill="#D0D5DD"/>
<path d="M74.809 57.5942H52.5453C52.0554 57.5942 51.6113 57.9662 51.5366 58.4416C51.4981 58.68 51.5595 58.9063 51.7076 59.0808C51.858 59.2566 52.0867 59.3577 52.3347 59.3577H74.5984C75.0883 59.3577 75.53 58.9857 75.6059 58.5115C75.6444 58.2731 75.583 58.0456 75.435 57.8711C75.2821 57.6917 75.0606 57.5942 74.809 57.5942Z" fill="#D0D5DD"/>
<path d="M99.9421 47.4697L100.21 49.1465C100.372 50.1516 101.062 50.9388 102.055 51.2494L103.712 51.7657L101.89 52.2821C100.799 52.5927 99.8578 53.3787 99.3751 54.385L98.5722 56.0618L98.3026 54.385C98.1413 53.3799 97.4516 52.5927 96.4585 52.2821L94.8022 51.7657L96.6234 51.2494C97.714 50.9388 98.6553 50.1528 99.138 49.1465L99.9421 47.4697Z" fill="#D0D5DD"/>
<path d="M39.5166 30.9165L39.7224 32.2021C39.8464 32.9724 40.3749 33.5767 41.1368 33.8138L42.4079 34.2098L41.0104 34.6071C40.1738 34.8442 39.4528 35.4472 39.0821 36.2176L38.4658 37.5044L38.2599 36.2176C38.136 35.4472 37.6063 34.8442 36.8456 34.6071L35.5757 34.2098L36.972 33.8138C37.8086 33.5767 38.5296 32.9724 38.9003 32.2021L39.5166 30.9165Z" fill="#D0D5DD"/>
<path d="M89.2647 87.6685L89.379 88.3859C89.4488 88.8144 89.7437 89.1514 90.1674 89.2838L90.8752 89.5053L90.0976 89.7268C89.6306 89.8592 89.2286 90.1962 89.0227 90.6248L88.6797 91.3422L88.5653 90.6248C88.4955 90.1962 88.2018 89.8592 87.7781 89.7268L87.0703 89.5053L87.8491 89.2838C88.3162 89.1514 88.717 88.8144 88.9228 88.3859L89.2647 87.6685Z" fill="#D0D5DD"/>
<path d="M29.9688 78.1968L30.0831 78.913C30.1517 79.3427 30.4466 79.6785 30.8715 79.8109L31.5793 80.0324L30.8017 80.2539C30.3347 80.3863 29.9327 80.7234 29.7268 81.1531L29.3838 81.8693L29.2694 81.1531C29.202 80.7234 28.9059 80.3875 28.4822 80.2539L27.7744 80.0324L28.552 79.8109C29.019 79.6797 29.4211 79.3427 29.6257 78.913L29.9688 78.1968Z" fill="#D0D5DD"/>
</svg>
