<svg width="21" height="22" viewBox="0 0 21 22" fill="none" xmlns="http://www.w3.org/2000/svg">
<path d="M10.5872 7.03882e-05C10.2101 -0.00293964 9.83359 0.0905827 9.50044 0.281893C7.36158 1.50512 5.00859 2.97475 2.55975 4.40601C2.55813 4.4071 2.55652 4.40819 2.55491 4.40929C1.35064 5.12509 0.374696 6.24934 0.206893 7.60438V7.60601C-0.190331 10.8563 -0.0153762 14.1135 0.730109 17.3584C0.731669 17.3639 0.733284 17.3693 0.734953 17.3748C0.957464 18.2658 1.49385 19.0795 2.15926 19.7654C2.82468 20.4513 3.62026 21.0097 4.4992 21.2482C4.50457 21.2499 4.50995 21.2515 4.51535 21.2531C8.49838 22.249 12.5017 22.249 16.4847 21.2531C16.4901 21.2515 16.4955 21.2499 16.5009 21.2482C17.3798 21.0097 18.1755 20.4515 18.8408 19.7654C19.5062 19.0793 20.0431 18.2648 20.2651 17.3731C20.2662 17.3682 20.2673 17.3633 20.2684 17.3584C21.0156 14.1083 21.1913 10.8466 20.7916 7.59127L20.79 7.58963C20.6222 6.24553 19.6589 5.12755 18.4662 4.40929C18.4646 4.40819 18.4629 4.4071 18.4613 4.40601C16.0668 2.98731 13.7668 1.52715 11.6724 0.29664C11.3418 0.102009 10.9644 0.00308058 10.5872 7.03882e-05ZM10.5759 1.6566C10.6575 1.65739 10.7398 1.68796 10.8424 1.74836C12.9003 2.95741 15.2056 4.41917 17.6281 5.85445C18.4658 6.36093 19.0764 7.22353 19.1493 7.79936C19.5245 10.855 19.3621 13.9027 18.66 16.9635C18.5425 17.4333 18.1637 18.0716 17.662 18.5889C17.1603 19.1063 16.539 19.5 16.0762 19.6261C15.4586 19.7801 14.8436 19.7542 14.2271 19.8571C14.5888 17.7416 14.5994 15.5461 14.1561 13.4522C14.1564 13.3877 14.1493 13.3234 14.1351 13.2605C14.1301 13.2379 14.1242 13.2155 14.1173 13.1933C14.1163 13.1889 14.1152 13.1846 14.1141 13.1802C14.112 13.1736 14.1099 13.1671 14.1076 13.1605C14.1055 13.1551 14.1034 13.1496 14.1012 13.1442C14.0934 13.1236 14.0847 13.1034 14.0753 13.0835C14.0636 13.0583 14.0507 13.0337 14.0366 13.0098C13.9615 12.8804 13.8536 12.7739 13.724 12.7012C13.5945 12.6286 13.4481 12.5926 13.3002 12.5969C11.5126 11.8077 9.51977 11.8136 7.73216 12.6002C7.53347 12.5858 7.33634 12.6447 7.17702 12.766C7.0177 12.8873 6.9069 13.0629 6.86498 13.2605C6.86399 13.2648 6.86436 13.2693 6.86336 13.2736C6.85096 13.3307 6.84447 13.3889 6.84399 13.4473V13.4506C6.4004 15.5449 6.41115 17.741 6.77293 19.8571C6.15648 19.7542 5.54144 19.7801 4.92391 19.6261C4.46109 19.5 3.83998 19.1062 3.33811 18.5889C2.8372 18.0726 2.45869 17.4361 2.34013 16.9668C1.63939 13.9108 1.47496 10.8648 1.8476 7.8141V7.81247C1.92025 7.23132 2.54408 6.35973 3.39141 5.85609C5.86559 4.40985 8.21735 2.94009 10.3127 1.7418H10.3143C10.4136 1.68479 10.4944 1.65581 10.5759 1.6566ZM10.5 13.598C11.2101 13.5967 11.9035 13.8139 12.5719 14.0978C12.945 16.0537 12.9491 18.12 12.5493 20.0669C11.1841 20.1923 9.81596 20.1923 8.45078 20.0669C8.05165 18.1232 8.05538 16.0607 8.42655 14.1076C9.09433 13.8203 9.78886 13.5993 10.5 13.598Z" fill="#CDCDCD"/>
</svg>
