<svg width="18" height="23" viewBox="0 0 18 23" fill="none" xmlns="http://www.w3.org/2000/svg">
<mask id="path-1-inside-1_2265_1247" fill="white">
<path d="M9 0C5.90339 0 3.375 2.58458 3.375 5.75C3.375 8.91542 5.90339 11.5 9 11.5C12.0966 11.5 14.625 8.91542 14.625 5.75C14.625 2.58458 12.0966 0 9 0ZM9 1.725C11.1846 1.725 12.9375 3.51684 12.9375 5.75C12.9375 7.98316 11.1846 9.775 9 9.775C6.81538 9.775 5.0625 7.98316 5.0625 5.75C5.0625 3.51684 6.81538 1.725 9 1.725ZM2.53125 13.8C1.14328 13.8 0 14.9687 0 16.3875V17.0771C0 18.768 1.0489 20.2848 2.6488 21.3278C4.24871 22.3707 6.43772 23 9 23C11.5623 23 13.7513 22.3707 15.3512 21.3278C16.9511 20.2848 18 18.768 18 17.0771V16.3875C18 14.9687 16.8567 13.8 15.4688 13.8H2.53125ZM2.53125 15.525H15.4688C15.9449 15.525 16.3125 15.9008 16.3125 16.3875V17.0771C16.3125 18.0345 15.7092 19.0485 14.4437 19.8734C13.1783 20.6984 11.2887 21.275 9 21.275C6.71128 21.275 4.82175 20.6984 3.55627 19.8734C2.2908 19.0485 1.6875 18.0345 1.6875 17.0771V16.3875C1.6875 15.9008 2.05509 15.525 2.53125 15.525Z"/>
</mask>
<path d="M9 0C5.90339 0 3.375 2.58458 3.375 5.75C3.375 8.91542 5.90339 11.5 9 11.5C12.0966 11.5 14.625 8.91542 14.625 5.75C14.625 2.58458 12.0966 0 9 0ZM9 1.725C11.1846 1.725 12.9375 3.51684 12.9375 5.75C12.9375 7.98316 11.1846 9.775 9 9.775C6.81538 9.775 5.0625 7.98316 5.0625 5.75C5.0625 3.51684 6.81538 1.725 9 1.725ZM2.53125 13.8C1.14328 13.8 0 14.9687 0 16.3875V17.0771C0 18.768 1.0489 20.2848 2.6488 21.3278C4.24871 22.3707 6.43772 23 9 23C11.5623 23 13.7513 22.3707 15.3512 21.3278C16.9511 20.2848 18 18.768 18 17.0771V16.3875C18 14.9687 16.8567 13.8 15.4688 13.8H2.53125ZM2.53125 15.525H15.4688C15.9449 15.525 16.3125 15.9008 16.3125 16.3875V17.0771C16.3125 18.0345 15.7092 19.0485 14.4437 19.8734C13.1783 20.6984 11.2887 21.275 9 21.275C6.71128 21.275 4.82175 20.6984 3.55627 19.8734C2.2908 19.0485 1.6875 18.0345 1.6875 17.0771V16.3875C1.6875 15.9008 2.05509 15.525 2.53125 15.525Z" fill="#121212"/>
<path d="M2.6488 21.3278L-0.0816787 25.5164H-0.0816778L2.6488 21.3278ZM15.3512 21.3278L18.0817 25.5164L15.3512 21.3278ZM14.4437 19.8734L11.7132 15.6848L11.7132 15.6848L14.4437 19.8734ZM3.55627 19.8734L6.28676 15.6848L6.28676 15.6848L3.55627 19.8734ZM9 -5C3.03894 -5 -1.625 -0.0726743 -1.625 5.75H8.375C8.375 5.51957 8.46316 5.32477 8.60044 5.18444C8.73612 5.04575 8.8764 5 9 5V-5ZM-1.625 5.75C-1.625 11.5727 3.03894 16.5 9 16.5V6.5C8.8764 6.5 8.73612 6.45425 8.60044 6.31556C8.46316 6.17523 8.375 5.98043 8.375 5.75H-1.625ZM9 16.5C14.9611 16.5 19.625 11.5727 19.625 5.75H9.625C9.625 5.98043 9.53684 6.17523 9.39956 6.31556C9.26388 6.45425 9.1236 6.5 9 6.5V16.5ZM19.625 5.75C19.625 -0.0726743 14.9611 -5 9 -5V5C9.1236 5 9.26388 5.04575 9.39956 5.18444C9.53684 5.32477 9.625 5.51957 9.625 5.75H19.625ZM9 6.725C8.32016 6.725 7.9375 6.17409 7.9375 5.75H17.9375C17.9375 0.859583 14.0491 -3.275 9 -3.275V6.725ZM7.9375 5.75C7.9375 5.32591 8.32016 4.775 9 4.775V14.775C14.0491 14.775 17.9375 10.6404 17.9375 5.75H7.9375ZM9 4.775C9.67984 4.775 10.0625 5.32591 10.0625 5.75H0.0625C0.0625 10.6404 3.95093 14.775 9 14.775V4.775ZM10.0625 5.75C10.0625 6.17409 9.67984 6.725 9 6.725V-3.275C3.95093 -3.275 0.0625 0.859583 0.0625 5.75H10.0625ZM2.53125 8.8C-1.72117 8.8 -5 12.3114 -5 16.3875H5C5 17.6259 4.00773 18.8 2.53125 18.8V8.8ZM-5 16.3875V17.0771H5V16.3875H-5ZM-5 17.0771C-5 20.9775 -2.59882 23.8755 -0.0816787 25.5164L5.37929 17.1392C5.07502 16.9408 4.95597 16.7816 4.93364 16.7468C4.92539 16.7339 4.94319 16.7584 4.96303 16.8222C4.98373 16.8887 5 16.9772 5 17.0771H-5ZM-0.0816778 25.5164C2.47325 27.1819 5.65394 28 9 28V18C7.2215 18 6.02417 17.5596 5.37929 17.1392L-0.0816778 25.5164ZM9 28C12.3461 28 15.5268 27.1819 18.0817 25.5164L12.6207 17.1392C11.9758 17.5596 10.7785 18 9 18V28ZM18.0817 25.5164C20.5988 23.8755 23 20.9775 23 17.0771H13C13 16.9772 13.0163 16.8887 13.037 16.8222C13.0568 16.7584 13.0746 16.7339 13.0664 16.7468C13.044 16.7816 12.925 16.9408 12.6207 17.1392L18.0817 25.5164ZM23 17.0771V16.3875H13V17.0771H23ZM23 16.3875C23 12.3114 19.7212 8.8 15.4688 8.8V18.8C13.9923 18.8 13 17.6259 13 16.3875H23ZM15.4688 8.8H2.53125V18.8H15.4688V8.8ZM2.53125 20.525H15.4688V10.525H2.53125V20.525ZM15.4688 20.525C13.0805 20.525 11.3125 18.558 11.3125 16.3875H21.3125C21.3125 13.2435 18.8094 10.525 15.4688 10.525V20.525ZM11.3125 16.3875V17.0771H21.3125V16.3875H11.3125ZM11.3125 17.0771C11.3125 16.4745 11.5079 16.035 11.6581 15.8036C11.7983 15.5875 11.8774 15.5778 11.7132 15.6848L17.1742 24.062C19.3179 22.6646 21.3125 20.279 21.3125 17.0771H11.3125ZM11.7132 15.6848C11.4015 15.8881 10.5031 16.275 9 16.275V26.275C12.0744 26.275 14.955 25.5087 17.1742 24.062L11.7132 15.6848ZM9 16.275C7.49694 16.275 6.59853 15.8881 6.28676 15.6848L0.825791 24.062C3.04496 25.5087 5.92562 26.275 9 26.275V16.275ZM6.28676 15.6848C6.12263 15.5778 6.20168 15.5875 6.3419 15.8036C6.49205 16.035 6.6875 16.4745 6.6875 17.0771H-3.3125C-3.3125 20.279 -1.31788 22.6646 0.825792 24.062L6.28676 15.6848ZM6.6875 17.0771V16.3875H-3.3125V17.0771H6.6875ZM6.6875 16.3875C6.6875 18.558 4.91954 20.525 2.53125 20.525V10.525C-0.809354 10.525 -3.3125 13.2435 -3.3125 16.3875H6.6875Z" fill="#121212" mask="url(#path-1-inside-1_2265_1247)"/>
</svg>
